<svg xmlns="http://www.w3.org/2000/svg" viewBox="0 0 600 400" width="600" height="400">
  <defs>
    <linearGradient id="blog3" x1="0" y1="0" x2="1" y2="1">
      <stop offset="0%" stop-color="#e0f7fa"/>
      <stop offset="100%" stop-color="#4fc3f7"/>
    </linearGradient>
  </defs>
  <rect width="600" height="400" fill="url(#blog3)"/>
  <path d="M0,250 Q150,200 300,250 T600,250 L600,400 L0,400 Z" fill="#01579b" opacity="0.5"/>
  <path d="M0,280 Q150,230 300,280 T600,280 L600,400 L0,400 Z" fill="#01579b" opacity="0.7"/>
  <circle cx="150" cy="120" r="20" fill="#fff" opacity="0.7"/>
  <circle cx="200" cy="100" r="15" fill="#fff" opacity="0.6"/>
  <circle cx="450" cy="130" r="18" fill="#fff" opacity="0.7"/>
  <circle cx="500" cy="110" r="12" fill="#fff" opacity="0.5"/>
  <path d="M250,180 Q300,120 350,180 L350,250 L250,250 Z" fill="#fff"/>
  <rect x="270" y="150" width="60" height="30" fill="#0277bd"/>
  <path d="M270,150 L300,130 L330,150 Z" fill="#01579b"/>
  <path d="M250,180 L350,180" stroke="#5d4037" stroke-width="4"/>
  <path d="M250,180 Q245,200 255,210" stroke="#5d4037" stroke-width="2" fill="none"/>
  <path d="M350,180 Q355,200 345,210" stroke="#5d4037" stroke-width="2" fill="none"/>
</svg>