<svg xmlns="http://www.w3.org/2000/svg" viewBox="0 0 600 400" width="600" height="400">
  <defs>
    <linearGradient id="col2" x1="0" y1="0" x2="1" y2="1">
      <stop offset="0%" stop-color="#bf360c"/>
      <stop offset="100%" stop-color="#ff8a65"/>
    </linearGradient>
  </defs>
  <rect width="600" height="400" fill="url(#col2)"/>
  <path d="M100,300 Q120,250 150,300 Q180,250 200,300" fill="none" stroke="#fff" stroke-width="3" opacity="0.5"/>
  <path d="M250,310 Q280,250 320,300 Q360,250 400,300 Q440,250 480,300" fill="none" stroke="#fff" stroke-width="3" opacity="0.5"/>
  <ellipse cx="150" cy="220" rx="20" ry="30" fill="#ffd180"/>
  <ellipse cx="220" cy="200" rx="22" ry="32" fill="#fff59d"/>
  <ellipse cx="300" cy="220" rx="20" ry="30" fill="#ffd180"/>
  <ellipse cx="380" cy="200" rx="22" ry="32" fill="#fff59d"/>
  <ellipse cx="450" cy="220" rx="20" ry="30" fill="#ffd180"/>
  <path d="M150,190 Q150,160 150,150" stroke="#558b2f" stroke-width="3" fill="none"/>
  <path d="M220,170 Q220,140 220,130" stroke="#558b2f" stroke-width="3" fill="none"/>
  <circle cx="150" cy="150" r="6" fill="#558b2f"/>
  <circle cx="220" cy="130" r="6" fill="#558b2f"/>
  <text x="300" y="370" text-anchor="middle" font-family="sans-serif" font-size="24" font-weight="bold" fill="#fff">Cocina Orgánica</text>
</svg>