<svg xmlns="http://www.w3.org/2000/svg" viewBox="0 0 400 400" width="400" height="400">
  <defs>
    <linearGradient id="bg9" x1="0" y1="0" x2="1" y2="1">
      <stop offset="0%" stop-color="#e0f7fa"/>
      <stop offset="100%" stop-color="#b2ebf2"/>
    </linearGradient>
  </defs>
  <rect width="400" height="400" fill="url(#bg9)"/>
  <ellipse cx="200" cy="320" rx="110" ry="12" fill="#000" opacity="0.1"/>
  <path d="M120,150 L120,290 Q120,310 140,310 L260,310 Q280,310 280,290 L280,150 Z" fill="#b2dfdb" stroke="#00695c" stroke-width="2"/>
  <path d="M135,165 L265,165 L265,295 L135,295 Z" fill="#fff"/>
  <path d="M140,180 L260,180 L260,210 L140,210 Z" fill="#80cbc4"/>
  <text x="200" y="200" text-anchor="middle" font-family="sans-serif" font-size="14" font-weight="bold" fill="#00695c">PANEL</text>
  <path d="M150,225 L250,225 M150,240 L250,240 M150,255 L250,255 M150,270 L250,270" stroke="#80cbc4" stroke-width="1"/>
  <circle cx="170" cy="280" r="2" fill="#00695c"/>
  <circle cx="190" cy="280" r="2" fill="#00695c"/>
  <circle cx="210" cy="280" r="2" fill="#00695c"/>
  <circle cx="230" cy="280" r="2" fill="#00695c"/>
  <path d="M280,180 L310,180 L310,260 L280,260" fill="none" stroke="#00695c" stroke-width="2"/>
  <path d="M180,150 L180,140 L220,140 L220,150" fill="none" stroke="#00695c" stroke-width="2"/>
  <path d="M310,200 L320,210 L320,250 L310,260" fill="none" stroke="#00695c" stroke-width="2"/>
  <circle cx="320" cy="230" r="4" fill="#00695c"/>
  <text x="200" y="378" text-anchor="middle" font-family="sans-serif" font-size="13" font-weight="bold" fill="#00695c">Panel Solar Portátil</text>
</svg>