<svg xmlns="http://www.w3.org/2000/svg" viewBox="0 0 400 400" width="400" height="400">
  <defs>
    <linearGradient id="bg2" x1="0" y1="0" x2="1" y2="1">
      <stop offset="0%" stop-color="#e1f5fe"/>
      <stop offset="100%" stop-color="#b3e5fc"/>
    </linearGradient>
    <linearGradient id="steel" x1="0" y1="0" x2="1" y2="0">
      <stop offset="0%" stop-color="#9e9e9e"/>
      <stop offset="50%" stop-color="#eceff1"/>
      <stop offset="100%" stop-color="#757575"/>
    </linearGradient>
  </defs>
  <rect width="400" height="400" fill="url(#bg2)"/>
  <path d="M170,90 Q170,75 200,75 Q230,75 230,90 L240,100 L240,320 Q240,335 225,335 L175,335 Q160,335 160,320 L160,100 Z" fill="url(#steel)" stroke="#546e7a" stroke-width="2"/>
  <ellipse cx="200" cy="90" rx="35" ry="10" fill="#546e7a"/>
  <ellipse cx="200" cy="90" rx="32" ry="7" fill="#37474f"/>
  <rect x="190" y="80" width="20" height="3" fill="#37474f"/>
  <path d="M170,120 L230,120 L230,125 L170,125 Z" fill="#b0bec5"/>
  <path d="M170,200 L230,200 L230,205 L170,205 Z" fill="#b0bec5" opacity="0.7"/>
  <path d="M170,280 L230,280 L230,285 L170,285 Z" fill="#b0bec5" opacity="0.7"/>
  <text x="200" y="370" text-anchor="middle" font-family="sans-serif" font-size="14" font-weight="bold" fill="#37474f">STEEL</text>
  <circle cx="200" cy="240" r="6" fill="#ffffff" opacity="0.4"/>
  <circle cx="180" cy="160" r="4" fill="#ffffff" opacity="0.4"/>
  <path d="M180,180 L190,170 L200,180 L190,190 Z" fill="#a5d6a7" opacity="0.6"/>
</svg>