<svg xmlns="http://www.w3.org/2000/svg" viewBox="0 0 400 400" width="400" height="400">
  <defs>
    <linearGradient id="bg10" x1="0" y1="0" x2="1" y2="1">
      <stop offset="0%" stop-color="#fbe9e7"/>
      <stop offset="100%" stop-color="#ffccbc"/>
    </linearGradient>
  </defs>
  <rect width="400" height="400" fill="url(#bg10)"/>
  <ellipse cx="200" cy="320" rx="110" ry="12" fill="#000" opacity="0.1"/>
  <path d="M120,180 L120,300 Q120,310 130,310 L270,310 Q280,310 280,300 L280,180 Z" fill="#fff" stroke="#bf360c" stroke-width="2"/>
  <path d="M120,180 L280,180 L280,200 L120,200 Z" fill="#bf360c"/>
  <text x="200" y="195" text-anchor="middle" font-family="sans-serif" font-size="10" font-weight="bold" fill="#fff">HONEY</text>
  <ellipse cx="200" cy="240" rx="60" ry="50" fill="#ffd180" opacity="0.6"/>
  <path d="M170,220 Q175,200 200,200 Q225,200 230,220 Q235,240 200,240 Q165,240 170,220" fill="#ffb74d" opacity="0.7"/>
  <text x="200" y="248" text-anchor="middle" font-family="sans-serif" font-size="11" font-weight="bold" fill="#bf360c">100%</text>
  <text x="200" y="262" text-anchor="middle" font-family="sans-serif" font-size="9" fill="#bf360c">NATURAL</text>
  <text x="200" y="278" text-anchor="middle" font-family="sans-serif" font-size="8" fill="#5d4037">500g</text>
  <path d="M140,120 Q140,100 200,100 Q260,100 260,120 L260,180 L240,180 L240,125 L160,125 L160,180 L140,180 Z" fill="#bf360c"/>
  <path d="M155,110 Q155,95 200,95 Q245,95 245,110 L245,125 L155,125 Z" fill="#3e2723"/>
  <path d="M180,140 Q200,135 220,140" stroke="#fff" stroke-width="2" fill="none"/>
  <text x="200" y="378" text-anchor="middle" font-family="sans-serif" font-size="13" font-weight="bold" fill="#bf360c">Miel de Azahar</text>
</svg>